# Blender 3.3.0
# www.blender.org
mtllib curved_surface2.mtl
o SurfPatch
v -0.100000 0.908844 0.100000
v -0.033334 0.913081 0.100000
v 0.033333 0.913082 0.100000
v 0.099999 0.908845 0.100000
v -0.100000 0.913081 0.033334
v -0.033334 0.917338 0.033334
v 0.033333 0.917338 0.033334
v 0.099999 0.913082 0.033334
v -0.100000 0.913082 -0.033333
v -0.033334 0.917338 -0.033333
v 0.033333 0.917338 -0.033333
v 0.099999 0.913082 -0.033333
v -0.100000 0.908845 -0.099999
v -0.033334 0.913082 -0.099999
v 0.033333 0.913082 -0.099999
v 0.099999 0.908845 -0.099999
vn -0.0318 0.9975 0.0636
vn -0.0636 0.9975 0.0318
vn -0.0633 0.9960 0.0633
vn 0.0318 0.9990 0.0318
vn 0.0318 0.9975 0.0636
vn 0.0636 0.9975 0.0318
vn 0.0633 0.9960 0.0633
vn -0.0318 0.9990 -0.0318
vn -0.0318 0.9990 0.0318
vn 0.0318 0.9990 -0.0318
vn -0.0318 0.9975 -0.0636
vn -0.0636 0.9975 -0.0318
vn 0.0636 0.9975 -0.0318
vn 0.0318 0.9975 -0.0636
vn -0.0633 0.9960 -0.0633
vn 0.0633 0.9960 -0.0633
vt 0.400000 0.400000
vt 0.400000 0.466667
vt 0.400000 0.533333
vt 0.400000 0.600000
vt 0.466667 0.400000
vt 0.466667 0.466667
vt 0.466667 0.533333
vt 0.466667 0.600000
vt 0.533333 0.400000
vt 0.533333 0.466667
vt 0.533333 0.533333
vt 0.533333 0.600000
vt 0.600000 0.400000
vt 0.600000 0.466667
vt 0.600000 0.533333
vt 0.600000 0.600000
s 1
f 2/2/1 5/5/2 1/1/3
f 7/7/4 2/2/1 3/3/5
f 8/8/6 3/3/5 4/4/7
f 10/10/8 5/5/2 6/6/9
f 11/11/10 6/6/9 7/7/4
f 8/8/6 11/11/10 7/7/4
f 14/14/11 9/9/12 10/10/8
f 11/11/10 14/14/11 10/10/8
f 12/12/13 15/15/14 11/11/10
f 2/2/1 6/6/9 5/5/2
f 7/7/4 6/6/9 2/2/1
f 8/8/6 7/7/4 3/3/5
f 10/10/8 9/9/12 5/5/2
f 11/11/10 10/10/8 6/6/9
f 8/8/6 12/12/13 11/11/10
f 14/14/11 13/13/15 9/9/12
f 11/11/10 15/15/14 14/14/11
f 12/12/13 16/16/16 15/15/14
