# Blender v2.93.5 OBJ File: ''
# www.blender.org
mtllib flowtest2.mtl
o Icosphere_Icosphere.004
v 0.369976 -1.324190 0.326826
v 1.770756 -1.271733 1.070494
v -0.895949 -0.434200 0.823351
v -1.557368 -0.447216 0.000000
v -0.160478 -0.197878 -1.426911
v 0.721432 -0.440369 -0.525701
v 0.214064 0.869834 0.758904
v -1.355862 0.449507 0.522619
v -0.726406 0.447220 -1.140025
v 0.102854 0.495864 -1.449731
v 0.818694 0.846948 0.007302
v 0.000000 2.565836 0.000000
v -0.617674 -0.850955 0.500298
v 1.472471 -1.675168 0.853780
v 1.310018 -1.350251 1.353780
v 1.226253 -0.852386 0.329307
v 0.710033 -1.098257 -0.059395
v -0.980749 -0.849454 0.000190
v -2.570917 -0.525736 0.499997
v -0.046509 -0.601322 -0.460457
v -0.655874 -0.456245 -0.955741
v 0.322203 -0.260799 -1.230772
v 1.326648 -0.326638 0.638307
v 0.942391 0.001350 -0.306475
v -0.498174 0.026613 0.925540
v 0.963372 -0.326634 1.138308
v -2.833786 0.000000 0.309013
v -2.470513 0.000000 0.809017
v -0.586810 0.002099 -2.239463
v -1.406642 0.000000 -0.315882
v 0.455804 0.137192 -1.244889
v 0.000000 0.000000 -2.430779
v 0.660201 0.803312 0.460035
v -0.570837 0.709446 0.717266
v -1.304853 0.526542 0.000000
v -0.264330 0.526947 -2.239650
v 0.514655 0.831836 -0.483265
v 0.162456 2.416490 0.499995
v 0.525730 2.416487 0.000000
v -0.428839 1.357648 0.303835
v -0.425323 1.133593 -0.576486
v 0.115580 1.089795 -0.762949
vt 0.181819 0.000000
vt 0.227273 0.078731
vt 0.136365 0.078731
vt 0.272728 0.157461
vt 0.318182 0.078731
vt 0.363637 0.157461
vt 0.909091 0.000000
vt 0.954545 0.078731
vt 0.863636 0.078731
vt 0.727273 0.000000
vt 0.772727 0.078731
vt 0.681818 0.078731
vt 0.545455 0.000000
vt 0.590909 0.078731
vt 0.500000 0.078731
vt 0.318182 0.236191
vt 0.090910 0.157461
vt 0.181819 0.157461
vt 0.136365 0.236191
vt 0.818182 0.157461
vt 0.909091 0.157461
vt 0.863636 0.236191
vt 0.636364 0.157461
vt 0.727273 0.157461
vt 0.681818 0.236191
vt 0.454546 0.157461
vt 0.545455 0.157461
vt 0.500000 0.236191
vt 0.227273 0.236191
vt 0.045455 0.236191
vt 0.772727 0.236191
vt 0.590909 0.236191
vt 0.409092 0.236191
vt 0.181819 0.314921
vt 0.272728 0.314921
vt 0.227273 0.393651
vt 0.000000 0.314921
vt 0.090910 0.314921
vt 0.045455 0.393651
vt 0.727273 0.314921
vt 0.818182 0.314921
vt 0.772727 0.393651
vt 0.545455 0.314921
vt 0.636364 0.314921
vt 0.590909 0.393651
vt 0.363637 0.314921
vt 0.454546 0.314921
vt 0.409092 0.393651
vt 0.500000 0.393651
vt 0.454546 0.472382
vt 0.681818 0.393651
vt 0.636364 0.472382
vt 0.863636 0.393651
vt 0.818182 0.472382
vt 0.909091 0.314921
vt 0.136365 0.393651
vt 0.090910 0.472382
vt 0.318182 0.393651
vt 0.272728 0.472382
vt 0.954545 0.236191
vt 1.000000 0.157461
vt 0.409092 0.078731
vt 0.363637 0.000000
vn -0.3898 -0.8942 0.2200
vn 0.7349 -0.1943 -0.6498
vn -0.3768 -0.8858 0.2709
vn -0.1129 -0.7609 -0.6389
vn -0.1821 -0.7704 -0.6110
vn 0.8355 0.1510 -0.5284
vn -0.2378 -0.0102 0.9713
vn -0.3602 -0.4723 -0.8044
vn 0.1783 -0.9297 -0.3223
vn 0.8003 -0.2873 -0.5263
vn 0.6786 0.5444 0.4931
vn -0.0558 -0.1700 0.9839
vn -0.3570 -0.4556 -0.8154
vn -0.0699 -0.9765 -0.2037
vn 0.8590 -0.1946 -0.4736
vn 0.5657 0.1545 0.8100
vn -0.3688 0.5559 0.7449
vn -0.6823 0.6189 -0.3892
vn 0.8327 0.4111 -0.3709
vn 0.8377 0.1539 -0.5239
vn 0.1316 0.4633 -0.8764
vn 0.6505 0.2174 -0.7277
vn 0.6883 0.5424 -0.4818
vn -0.2637 0.4265 -0.8652
vn -0.0434 0.9372 -0.3461
vn -0.7712 0.5704 -0.2827
vn -0.9455 0.3145 -0.0838
vn -0.6396 0.7443 -0.1920
vn -0.6947 0.7183 0.0381
vn -0.8333 0.3934 0.3883
vn -0.8444 0.4071 0.3482
vn -0.0852 0.1617 0.9831
vn 0.2680 0.9435 0.1947
vn 0.7875 0.2288 0.5722
vn 0.9241 0.1741 0.3403
vn 0.8049 0.3063 -0.5083
vn 0.8500 0.3549 -0.3894
vn 0.7469 0.4616 -0.4787
vn 0.7834 0.5177 -0.3438
vn -0.3039 0.1864 -0.9343
vn -0.8115 0.4985 -0.3049
vn -0.7993 0.4152 -0.4345
vn -0.3398 0.5313 -0.7761
vn -0.3037 0.9464 0.1099
vn -0.3411 0.9306 0.1330
vn -0.0604 0.2853 0.9565
vn -0.1077 0.2795 0.9541
vn 0.5232 0.5374 0.6614
vn 0.7029 0.4951 0.5107
vn 0.7906 0.5179 0.3267
vn 0.7597 0.5448 -0.3550
vn 0.8982 -0.3125 -0.3091
vn -0.0462 -0.9786 -0.2003
vn -0.7615 0.5613 -0.3240
vn -0.6627 -0.6933 -0.2832
vn -0.7087 -0.2318 -0.6663
vn -0.3133 0.9220 0.2276
vn -0.7947 -0.1876 0.5773
vn -0.1407 -0.4816 0.8650
vn -0.0783 0.2565 0.9634
vn -0.1011 0.1720 0.9799
vn 0.4536 0.3280 0.8286
vn 0.9250 0.2435 -0.2917
vn 0.9301 0.0371 -0.3654
vn 0.8225 -0.1375 -0.5519
vn 0.7568 -0.3866 -0.5270
vn -0.2772 -0.8227 -0.4964
vn 0.0380 -0.9206 -0.3888
vn 0.1023 -0.9136 -0.3935
vn 0.0702 -0.9307 -0.3590
vn -0.5050 -0.7242 -0.4695
vn -0.3507 -0.5031 -0.7899
vn -0.1632 -0.9798 0.1155
vn -0.1089 -0.6534 0.7491
vn 0.6644 -0.4398 -0.6042
vn 0.6563 -0.2560 -0.7097
vn -0.0233 -0.8539 -0.5200
vn -0.4295 -0.7147 0.5520
vn -0.3938 -0.8239 0.4075
vn 0.4713 -0.6617 0.5831
usemtl None
s off
f 1/1/1 14/2/1 13/3/1
f 2/4/2 14/5/2 16/6/2
f 1/7/3 13/8/3 18/9/3
f 1/10/4 18/11/4 20/12/4
f 1/13/5 20/14/5 17/15/5
f 2/4/6 16/6/6 23/16/6
f 3/17/7 15/18/7 25/19/7
f 4/20/8 19/21/8 27/22/8
f 5/23/9 21/24/9 29/25/9
f 6/26/10 22/27/10 31/28/10
f 2/4/11 23/16/11 26/29/11
f 3/17/12 25/19/12 28/30/12
f 4/20/13 27/22/13 30/31/13
f 5/23/14 29/25/14 32/32/14
f 6/26/15 31/28/15 24/33/15
f 7/34/16 33/35/16 38/36/16
f 8/37/17 34/38/17 40/39/17
f 9/40/18 35/41/18 41/42/18
f 10/43/19 36/44/19 42/45/19
f 11/46/20 37/47/20 39/48/20
f 39/48/21 42/49/21 12/50/21
f 39/48/22 37/47/22 42/49/22
f 37/47/23 10/43/23 42/49/23
f 42/45/24 41/51/24 12/52/24
f 42/45/25 36/44/25 41/51/25
f 36/44/26 9/40/26 41/51/26
f 41/42/27 40/53/27 12/54/27
f 41/42/28 35/41/28 40/53/28
f 35/41/29 8/55/29 40/53/29
f 40/39/30 38/56/30 12/57/30
f 40/39/31 34/38/31 38/56/31
f 34/38/32 7/34/32 38/56/32
f 38/36/33 39/58/33 12/59/33
f 38/36/34 33/35/34 39/58/34
f 33/35/35 11/46/35 39/58/35
f 24/33/36 37/47/36 11/46/36
f 24/33/37 31/28/37 37/47/37
f 31/28/38 10/43/38 37/47/38
f 32/32/39 36/44/39 10/43/39
f 32/32/40 29/25/40 36/44/40
f 29/25/41 9/40/41 36/44/41
f 30/31/42 35/41/42 9/40/42
f 30/31/43 27/22/43 35/41/43
f 27/22/44 8/55/44 35/41/44
f 28/30/45 34/38/45 8/37/45
f 28/30/46 25/19/46 34/38/46
f 25/19/47 7/34/47 34/38/47
f 26/29/48 33/35/48 7/34/48
f 26/29/49 23/16/49 33/35/49
f 23/16/50 11/46/50 33/35/50
f 31/28/51 32/32/51 10/43/51
f 31/28/52 22/27/52 32/32/52
f 22/27/53 5/23/53 32/32/53
f 29/25/54 30/31/54 9/40/54
f 29/25/55 21/24/55 30/31/55
f 21/24/56 4/20/56 30/31/56
f 27/22/57 28/60/57 8/55/57
f 27/22/58 19/21/58 28/60/58
f 19/21/59 3/61/59 28/60/59
f 25/19/60 26/29/60 7/34/60
f 25/19/61 15/18/61 26/29/61
f 15/18/62 2/4/62 26/29/62
f 23/16/63 24/33/63 11/46/63
f 23/16/64 16/6/64 24/33/64
f 16/6/65 6/26/65 24/33/65
f 17/15/66 22/27/66 6/26/66
f 17/15/67 20/14/67 22/27/67
f 20/14/68 5/23/68 22/27/68
f 20/12/69 21/24/69 5/23/69
f 20/12/70 18/11/70 21/24/70
f 18/11/71 4/20/71 21/24/71
f 18/9/72 19/21/72 4/20/72
f 18/9/73 13/8/73 19/21/73
f 13/8/74 3/61/74 19/21/74
f 16/6/75 17/62/75 6/26/75
f 16/6/76 14/5/76 17/62/76
f 14/5/77 1/63/77 17/62/77
f 13/3/78 15/18/78 3/17/78
f 13/3/79 14/2/79 15/18/79
f 14/2/80 2/4/80 15/18/80
