# Blender 3.3.0
# www.blender.org
o SurfPatch
v -0.033334 0.913081 0.100000
v 0.033333 0.913082 0.100000
v -0.033334 0.917338 0.033334
v 0.033333 0.917338 0.033334
v -0.033334 0.917338 -0.033333
v 0.033333 0.917338 -0.033333
vn -0.0000 0.9995 0.0319
vn -0.0000 0.9980 0.0637
vn -0.0000 1.0000 -0.0000
vt 0.400000 0.466667
vt 0.400000 0.533333
vt 0.466667 0.466667
vt 0.466667 0.533333
vt 0.533333 0.466667
vt 0.533333 0.533333
s 1
f 4/4/1 1/1/2 2/2/2
f 6/6/3 3/3/1 4/4/1
f 4/4/1 3/3/1 1/1/2
f 6/6/3 5/5/3 3/3/1
