# Blender 3.3.0
# www.blender.org
mtllib tetrahedron.mtl
o Cone
v 0.000000 -0.408248 -0.577350
v 0.500000 -0.408248 0.288675
v -0.500000 -0.408248 0.288675
v 0.000000 0.408248 0.000000
vn 0.8165 0.3333 -0.4714
vn -0.0000 -1.0000 -0.0000
vn -0.0000 0.3333 0.9428
vn -0.8165 0.3333 -0.4714
vt 0.750000 0.490000
vt 0.250000 0.490000
vt 0.957846 0.130000
vt 0.457846 0.130000
vt 0.542154 0.130000
vt 0.042154 0.130000
vt 0.250000 0.250000
s 0
f 1/2/1 4/7/1 2/4/1
f 1/1/2 2/3/2 3/5/2
f 2/4/3 4/7/3 3/6/3
f 3/6/4 4/7/4 1/2/4
