# Blender 3.3.0
# www.blender.org
mtllib torusA.mtl
o Torus
v 1.250000 0.000000 0.000000
v 1.125000 0.216506 0.000000
v 0.875000 0.216506 0.000000
v 0.750000 0.000000 0.000000
v 0.875000 -0.216506 0.000000
v 1.125000 -0.216506 0.000000
v 1.011271 0.000000 -0.734732
v 0.910144 0.216506 -0.661258
v 0.707890 0.216506 -0.514312
v 0.606763 0.000000 -0.440839
v 0.707890 -0.216506 -0.514312
v 0.910144 -0.216506 -0.661258
v 0.386271 0.000000 -1.188821
v 0.347644 0.216506 -1.069939
v 0.270390 0.216506 -0.832174
v 0.231763 0.000000 -0.713292
v 0.270390 -0.216506 -0.832174
v 0.347644 -0.216506 -1.069939
v -0.386271 0.000000 -1.188821
v -0.347644 0.216506 -1.069939
v -0.270390 0.216506 -0.832174
v -0.231763 0.000000 -0.713292
v -0.270390 -0.216506 -0.832174
v -0.347644 -0.216506 -1.069939
v -1.011271 0.000000 -0.734731
v -0.910144 0.216506 -0.661258
v -0.707890 0.216506 -0.514312
v -0.606763 0.000000 -0.440839
v -0.707890 -0.216506 -0.514312
v -0.910144 -0.216506 -0.661258
v -1.250000 0.000000 -0.000000
v -1.125000 0.216506 -0.000000
v -0.875000 0.216506 -0.000000
v -0.750000 0.000000 -0.000000
v -0.875000 -0.216506 -0.000000
v -1.125000 -0.216506 -0.000000
v -1.011271 0.000000 0.734731
v -0.910144 0.216506 0.661258
v -0.707890 0.216506 0.514312
v -0.606763 0.000000 0.440839
v -0.707890 -0.216506 0.514312
v -0.910144 -0.216506 0.661258
v -0.386271 0.000000 1.188821
v -0.347644 0.216506 1.069939
v -0.270390 0.216506 0.832174
v -0.231763 0.000000 0.713292
v -0.270390 -0.216506 0.832174
v -0.347644 -0.216506 1.069939
v 0.386271 0.000000 1.188821
v 0.347644 0.216506 1.069939
v 0.270390 0.216506 0.832174
v 0.231763 0.000000 0.713292
v 0.270390 -0.216506 0.832174
v 0.347644 -0.216506 1.069939
v 1.011271 0.000000 0.734732
v 0.910144 0.216506 0.661259
v 0.707890 0.216506 0.514312
v 0.606763 0.000000 0.440839
v 0.707890 -0.216506 0.514312
v 0.910144 -0.216506 0.661259
vn 0.8337 0.4813 -0.2709
vn -0.0000 1.0000 -0.0000
vn -0.8337 0.4813 0.2709
vn -0.8337 -0.4813 0.2709
vn -0.0000 -1.0000 -0.0000
vn 0.8337 -0.4813 -0.2709
vn 0.5152 0.4813 -0.7091
vn -0.5152 0.4813 0.7091
vn -0.5152 -0.4813 0.7091
vn 0.5152 -0.4813 -0.7091
vn -0.0000 0.4813 -0.8766
vn -0.0000 0.4813 0.8766
vn -0.0000 -0.4813 0.8766
vn -0.0000 -0.4813 -0.8766
vn -0.5152 0.4813 -0.7091
vn 0.5152 0.4813 0.7091
vn 0.5152 -0.4813 0.7091
vn -0.5152 -0.4813 -0.7091
vn -0.8337 0.4813 -0.2709
vn 0.8337 0.4813 0.2709
vn 0.8337 -0.4813 0.2709
vn -0.8337 -0.4813 -0.2709
vn 0.8336 0.4813 0.2709
vn -0.8336 0.4813 -0.2709
vn 0.8336 -0.4813 0.2709
vt 0.600000 0.500000
vt 0.600000 0.666667
vt 0.600000 0.833333
vt 0.600000 1.000000
vt 0.600000 -0.000000
vt 0.600000 0.166667
vt 0.600000 0.333333
vt 0.700000 0.500000
vt 0.700000 0.666667
vt 0.700000 0.833333
vt 0.700000 -0.000000
vt 0.700000 1.000000
vt 0.700000 0.166667
vt 0.700000 0.333333
vt 0.800000 0.500000
vt 0.800000 0.666667
vt 0.800000 0.833333
vt 0.800000 -0.000000
vt 0.800000 1.000000
vt 0.800000 0.166667
vt 0.800000 0.333333
vt 0.900000 0.500000
vt 0.900000 0.666667
vt 0.900000 0.833333
vt 0.900000 -0.000000
vt 0.900000 1.000000
vt 0.900000 0.166667
vt 0.900000 0.333333
vt -0.000000 0.500000
vt 1.000000 0.500000
vt 1.000000 0.666667
vt -0.000000 0.666667
vt -0.000000 0.833333
vt 1.000000 0.833333
vt -0.000000 -0.000000
vt 1.000000 1.000000
vt 1.000000 -0.000000
vt -0.000000 1.000000
vt 1.000000 0.166667
vt -0.000000 0.166667
vt 1.000000 0.333333
vt -0.000000 0.333333
vt 0.100000 0.500000
vt 0.100000 0.666667
vt 0.100000 0.833333
vt 0.100000 -0.000000
vt 0.100000 1.000000
vt 0.100000 0.166667
vt 0.100000 0.333333
vt 0.200000 0.500000
vt 0.200000 0.666667
vt 0.200000 0.833333
vt 0.200000 -0.000000
vt 0.200000 1.000000
vt 0.200000 0.166667
vt 0.200000 0.333333
vt 0.300000 0.500000
vt 0.300000 0.666667
vt 0.300000 0.833333
vt 0.300000 -0.000000
vt 0.300000 1.000000
vt 0.300000 0.166667
vt 0.300000 0.333333
vt 0.400000 0.500000
vt 0.400000 0.666667
vt 0.400000 0.833333
vt 0.400000 -0.000000
vt 0.400000 1.000000
vt 0.400000 0.166667
vt 0.400000 0.333333
vt 0.500000 0.500000
vt 0.500000 0.666667
vt 0.500000 0.833333
vt 0.500000 -0.000000
vt 0.500000 1.000000
vt 0.500000 0.166667
vt 0.500000 0.333333
s 0
f 7/8/1 2/2/1 1/1/1
f 8/9/2 3/3/2 2/2/2
f 9/10/3 4/4/3 3/3/3
f 10/11/4 5/6/4 4/5/4
f 5/6/5 12/14/5 6/7/5
f 12/14/6 1/1/6 6/7/6
f 13/15/7 8/9/7 7/8/7
f 14/16/2 9/10/2 8/9/2
f 15/17/8 10/12/8 9/10/8
f 16/18/9 11/13/9 10/11/9
f 17/20/5 12/14/5 11/13/5
f 18/21/10 7/8/10 12/14/10
f 19/22/11 14/16/11 13/15/11
f 20/23/2 15/17/2 14/16/2
f 21/24/12 16/19/12 15/17/12
f 22/25/13 17/20/13 16/18/13
f 17/20/5 24/28/5 18/21/5
f 24/28/14 13/15/14 18/21/14
f 19/22/15 26/31/15 20/23/15
f 20/23/2 27/34/2 21/24/2
f 27/34/16 22/26/16 21/24/16
f 28/37/17 23/27/17 22/25/17
f 29/39/5 24/28/5 23/27/5
f 30/41/18 19/22/18 24/28/18
f 31/43/19 26/32/19 25/29/19
f 26/32/2 33/45/2 27/33/2
f 33/45/20 28/38/20 27/33/20
f 34/46/21 29/40/21 28/35/21
f 29/40/5 36/49/5 30/42/5
f 30/42/22 31/43/22 25/29/22
f 37/50/3 32/44/3 31/43/3
f 32/44/2 39/52/2 33/45/2
f 39/52/1 34/47/1 33/45/1
f 40/53/6 35/48/6 34/46/6
f 41/55/5 36/49/5 35/48/5
f 42/56/4 31/43/4 36/49/4
f 43/57/8 38/51/8 37/50/8
f 38/51/2 45/59/2 39/52/2
f 45/59/7 40/54/7 39/52/7
f 46/60/10 41/55/10 40/53/10
f 41/55/5 48/63/5 42/56/5
f 48/63/9 37/50/9 42/56/9
f 49/64/12 44/58/12 43/57/12
f 44/58/2 51/66/2 45/59/2
f 51/66/11 46/61/11 45/59/11
f 52/67/14 47/62/14 46/60/14
f 53/69/5 48/63/5 47/62/5
f 54/70/13 43/57/13 48/63/13
f 49/64/16 56/72/16 50/65/16
f 56/72/2 51/66/2 50/65/2
f 57/73/15 52/68/15 51/66/15
f 58/74/18 53/69/18 52/67/18
f 59/76/5 54/70/5 53/69/5
f 60/77/17 49/64/17 54/70/17
f 1/1/23 56/72/23 55/71/23
f 2/2/2 57/73/2 56/72/2
f 3/3/24 58/75/24 57/73/24
f 4/5/22 59/76/22 58/74/22
f 5/6/5 60/77/5 59/76/5
f 6/7/25 55/71/25 60/77/25
f 7/8/1 8/9/1 2/2/1
f 8/9/2 9/10/2 3/3/2
f 9/10/3 10/12/3 4/4/3
f 10/11/4 11/13/4 5/6/4
f 5/6/5 11/13/5 12/14/5
f 12/14/6 7/8/6 1/1/6
f 13/15/7 14/16/7 8/9/7
f 14/16/2 15/17/2 9/10/2
f 15/17/8 16/19/8 10/12/8
f 16/18/9 17/20/9 11/13/9
f 17/20/5 18/21/5 12/14/5
f 18/21/10 13/15/10 7/8/10
f 19/22/11 20/23/11 14/16/11
f 20/23/2 21/24/2 15/17/2
f 21/24/12 22/26/12 16/19/12
f 22/25/13 23/27/13 17/20/13
f 17/20/5 23/27/5 24/28/5
f 24/28/14 19/22/14 13/15/14
f 19/22/15 25/30/15 26/31/15
f 20/23/2 26/31/2 27/34/2
f 27/34/16 28/36/16 22/26/16
f 28/37/17 29/39/17 23/27/17
f 29/39/5 30/41/5 24/28/5
f 30/41/18 25/30/18 19/22/18
f 31/43/19 32/44/19 26/32/19
f 26/32/2 32/44/2 33/45/2
f 33/45/23 34/47/23 28/38/23
f 34/46/21 35/48/21 29/40/21
f 29/40/5 35/48/5 36/49/5
f 30/42/22 36/49/22 31/43/22
f 37/50/3 38/51/3 32/44/3
f 32/44/2 38/51/2 39/52/2
f 39/52/1 40/54/1 34/47/1
f 40/53/6 41/55/6 35/48/6
f 41/55/5 42/56/5 36/49/5
f 42/56/4 37/50/4 31/43/4
f 43/57/8 44/58/8 38/51/8
f 38/51/2 44/58/2 45/59/2
f 45/59/7 46/61/7 40/54/7
f 46/60/10 47/62/10 41/55/10
f 41/55/5 47/62/5 48/63/5
f 48/63/9 43/57/9 37/50/9
f 49/64/12 50/65/12 44/58/12
f 44/58/2 50/65/2 51/66/2
f 51/66/11 52/68/11 46/61/11
f 52/67/14 53/69/14 47/62/14
f 53/69/5 54/70/5 48/63/5
f 54/70/13 49/64/13 43/57/13
f 49/64/16 55/71/16 56/72/16
f 56/72/2 57/73/2 51/66/2
f 57/73/15 58/75/15 52/68/15
f 58/74/18 59/76/18 53/69/18
f 59/76/5 60/77/5 54/70/5
f 60/77/17 55/71/17 49/64/17
f 1/1/23 2/2/23 56/72/23
f 2/2/2 3/3/2 57/73/2
f 3/3/19 4/4/19 58/75/19
f 4/5/22 5/6/22 59/76/22
f 5/6/5 6/7/5 60/77/5
f 6/7/25 1/1/25 55/71/25
