# Blender 3.3.0
# www.blender.org
o Torus
v 1.250000 0.000000 0.000000
v 1.176777 0.176777 0.000000
v 1.000000 0.250000 0.000000
v 0.823223 0.176777 0.000000
v 0.750000 0.000000 0.000000
v 0.823223 -0.176777 0.000000
v 1.000000 -0.250000 0.000000
v 1.176777 -0.176777 0.000000
v 1.188821 0.000000 -0.386271
v 1.119181 0.176777 -0.363644
v 0.951057 0.250000 -0.309017
v 0.782932 0.176777 -0.254390
v 0.713292 0.000000 -0.231763
v 0.782932 -0.176777 -0.254390
v 0.951057 -0.250000 -0.309017
v 1.119181 -0.176777 -0.363644
v 1.011271 0.000000 -0.734732
v 0.952032 0.176777 -0.691692
v 0.809017 0.250000 -0.587785
v 0.666002 0.176777 -0.483878
v 0.606763 0.000000 -0.440839
v 0.666002 -0.176777 -0.483878
v 0.809017 -0.250000 -0.587785
v 0.952032 -0.176777 -0.691692
v 0.734731 0.000000 -1.011271
v 0.691692 0.176777 -0.952032
v 0.587785 0.250000 -0.809017
v 0.483878 0.176777 -0.666002
v 0.440839 0.000000 -0.606763
v 0.483878 -0.176777 -0.666002
v 0.587785 -0.250000 -0.809017
v 0.691692 -0.176777 -0.952032
v 0.386271 0.000000 -1.188821
v 0.363644 0.176777 -1.119181
v 0.309017 0.250000 -0.951056
v 0.254390 0.176777 -0.782932
v 0.231763 0.000000 -0.713292
v 0.254390 -0.176777 -0.782932
v 0.309017 -0.250000 -0.951056
v 0.363644 -0.176777 -1.119181
v 0.000000 0.000000 -1.250000
v 0.000000 0.176777 -1.176777
v 0.000000 0.250000 -1.000000
v 0.000000 0.176777 -0.823223
v 0.000000 0.000000 -0.750000
v 0.000000 -0.176777 -0.823223
v 0.000000 -0.250000 -1.000000
v 0.000000 -0.176777 -1.176777
v -0.386271 0.000000 -1.188821
v -0.363644 0.176777 -1.119181
v -0.309017 0.250000 -0.951056
v -0.254390 0.176777 -0.782932
v -0.231763 0.000000 -0.713292
v -0.254390 -0.176777 -0.782932
v -0.309017 -0.250000 -0.951056
v -0.363644 -0.176777 -1.119181
v -0.734732 0.000000 -1.011271
v -0.691692 0.176777 -0.952032
v -0.587785 0.250000 -0.809017
v -0.483879 0.176777 -0.666002
v -0.440839 0.000000 -0.606763
v -0.483879 -0.176777 -0.666002
v -0.587785 -0.250000 -0.809017
v -0.691692 -0.176777 -0.952032
v -1.011271 0.000000 -0.734731
v -0.952033 0.176777 -0.691692
v -0.809017 0.250000 -0.587785
v -0.666002 0.176777 -0.483878
v -0.606763 0.000000 -0.440839
v -0.666002 -0.176777 -0.483878
v -0.809017 -0.250000 -0.587785
v -0.952033 -0.176777 -0.691692
v -1.188821 0.000000 -0.386271
v -1.119181 0.176777 -0.363644
v -0.951056 0.250000 -0.309017
v -0.782932 0.176777 -0.254390
v -0.713292 0.000000 -0.231763
v -0.782932 -0.176777 -0.254390
v -0.951056 -0.250000 -0.309017
v -1.119181 -0.176777 -0.363644
v -1.250000 0.000000 -0.000000
v -1.176777 0.176777 -0.000000
v -1.000000 0.250000 -0.000000
v -0.823223 0.176777 -0.000000
v -0.750000 0.000000 -0.000000
v -0.823223 -0.176777 -0.000000
v -1.000000 -0.250000 -0.000000
v -1.176777 -0.176777 -0.000000
v -1.188821 0.000000 0.386271
v -1.119181 0.176777 0.363643
v -0.951057 0.250000 0.309017
v -0.782932 0.176777 0.254390
v -0.713292 0.000000 0.231762
v -0.782932 -0.176777 0.254390
v -0.951057 -0.250000 0.309017
v -1.119181 -0.176777 0.363643
v -1.011271 0.000000 0.734731
v -0.952033 0.176777 0.691692
v -0.809017 0.250000 0.587785
v -0.666002 0.176777 0.483878
v -0.606763 0.000000 0.440839
v -0.666002 -0.176777 0.483878
v -0.809017 -0.250000 0.587785
v -0.952033 -0.176777 0.691692
v -0.734732 0.000000 1.011271
v -0.691692 0.176777 0.952032
v -0.587785 0.250000 0.809017
v -0.483879 0.176777 0.666002
v -0.440839 0.000000 0.606763
v -0.483879 -0.176777 0.666002
v -0.587785 -0.250000 0.809017
v -0.691692 -0.176777 0.952032
v -0.386271 0.000000 1.188821
v -0.363644 0.176777 1.119181
v -0.309017 0.250000 0.951056
v -0.254390 0.176777 0.782932
v -0.231763 0.000000 0.713292
v -0.254390 -0.176777 0.782932
v -0.309017 -0.250000 0.951056
v -0.363644 -0.176777 1.119181
v 0.000000 0.000000 1.250000
v 0.000000 0.176777 1.176777
v 0.000000 0.250000 1.000000
v 0.000000 0.176777 0.823223
v 0.000000 0.000000 0.750000
v 0.000000 -0.176777 0.823223
v 0.000000 -0.250000 1.000000
v 0.000000 -0.176777 1.176777
v 0.386271 0.000000 1.188821
v 0.363644 0.176777 1.119181
v 0.309017 0.250000 0.951056
v 0.254390 0.176777 0.782932
v 0.231763 0.000000 0.713292
v 0.254390 -0.176777 0.782932
v 0.309017 -0.250000 0.951056
v 0.363644 -0.176777 1.119181
v 0.734731 0.000000 1.011272
v 0.691691 0.176777 0.952033
v 0.587785 0.250000 0.809017
v 0.483878 0.176777 0.666002
v 0.440839 0.000000 0.606763
v 0.483878 -0.176777 0.666002
v 0.587785 -0.250000 0.809017
v 0.691691 -0.176777 0.952033
v 1.011271 0.000000 0.734732
v 0.952032 0.176777 0.691692
v 0.809017 0.250000 0.587786
v 0.666001 0.176777 0.483879
v 0.606763 0.000000 0.440839
v 0.666001 -0.176777 0.483879
v 0.809017 -0.250000 0.587786
v 0.952032 -0.176777 0.691692
v 1.188820 0.000000 0.386272
v 1.119181 0.176777 0.363644
v 0.951056 0.250000 0.309017
v 0.782932 0.176777 0.254390
v 0.713292 0.000000 0.231763
v 0.782932 -0.176777 0.254390
v 0.951056 -0.250000 0.309017
v 1.119181 -0.176777 0.363644
vn 0.9141 0.3787 -0.1448
vn 0.3820 0.9222 -0.0605
vn -0.3820 0.9222 0.0605
vn -0.9141 0.3787 0.1448
vn -0.9141 -0.3787 0.1448
vn -0.3820 -0.9222 0.0605
vn 0.3820 -0.9222 -0.0605
vn 0.9141 -0.3787 -0.1448
vn 0.8247 0.3787 -0.4202
vn 0.3446 0.9222 -0.1756
vn -0.3446 0.9222 0.1756
vn -0.8247 0.3787 0.4202
vn -0.8247 -0.3787 0.4202
vn -0.3446 -0.9222 0.1756
vn 0.3446 -0.9222 -0.1756
vn 0.8247 -0.3787 -0.4202
vn 0.6545 0.3787 -0.6545
vn 0.2735 0.9222 -0.2735
vn -0.2735 0.9222 0.2735
vn -0.6545 0.3787 0.6545
vn -0.6545 -0.3787 0.6545
vn -0.2735 -0.9222 0.2735
vn 0.2735 -0.9222 -0.2735
vn 0.6545 -0.3787 -0.6545
vn 0.4202 0.3787 -0.8247
vn 0.1756 0.9222 -0.3446
vn -0.1756 0.9222 0.3446
vn -0.4202 0.3787 0.8247
vn -0.4202 -0.3787 0.8247
vn -0.1756 -0.9222 0.3446
vn 0.1756 -0.9222 -0.3446
vn 0.4202 -0.3787 -0.8247
vn 0.1448 0.3787 -0.9141
vn 0.0605 0.9222 -0.3820
vn -0.0605 0.9222 0.3820
vn -0.1448 0.3787 0.9141
vn -0.1448 -0.3787 0.9141
vn -0.0605 -0.9222 0.3820
vn 0.0605 -0.9222 -0.3820
vn 0.1448 -0.3787 -0.9141
vn -0.1448 0.3787 -0.9141
vn -0.0605 0.9222 -0.3820
vn 0.0605 0.9222 0.3820
vn 0.1448 0.3787 0.9141
vn 0.1448 -0.3787 0.9141
vn 0.0605 -0.9222 0.3820
vn -0.0605 -0.9222 -0.3820
vn -0.1448 -0.3787 -0.9141
vn -0.4202 0.3787 -0.8247
vn -0.1756 0.9222 -0.3446
vn 0.1756 0.9222 0.3446
vn 0.4202 0.3787 0.8247
vn 0.4202 -0.3787 0.8247
vn 0.1756 -0.9222 0.3446
vn -0.1756 -0.9222 -0.3446
vn -0.4202 -0.3787 -0.8247
vn -0.6545 0.3787 -0.6545
vn -0.2735 0.9222 -0.2735
vn 0.2735 0.9222 0.2735
vn 0.6545 0.3787 0.6545
vn 0.6545 -0.3787 0.6545
vn 0.2735 -0.9222 0.2735
vn -0.2735 -0.9222 -0.2735
vn -0.6545 -0.3787 -0.6545
vn -0.8247 0.3787 -0.4202
vn -0.3446 0.9222 -0.1756
vn 0.3446 0.9222 0.1756
vn 0.8247 0.3787 0.4202
vn 0.8247 -0.3787 0.4202
vn 0.3446 -0.9222 0.1756
vn -0.3446 -0.9222 -0.1756
vn -0.8247 -0.3787 -0.4202
vn -0.9141 0.3787 -0.1448
vn -0.3820 0.9222 -0.0605
vn 0.3820 0.9222 0.0605
vn 0.9141 0.3787 0.1448
vn 0.9141 -0.3787 0.1448
vn 0.3820 -0.9222 0.0605
vn -0.3820 -0.9222 -0.0605
vn -0.9141 -0.3787 -0.1448
s 0
f 9//1 2//1 1//1
f 10//2 3//2 2//2
f 11//3 4//3 3//3
f 12//4 5//4 4//4
f 13//5 6//5 5//5
f 14//6 7//6 6//6
f 15//7 8//7 7//7
f 8//8 9//8 1//8
f 17//9 10//9 9//9
f 18//10 11//10 10//10
f 19//11 12//11 11//11
f 20//12 13//12 12//12
f 21//13 14//13 13//13
f 22//14 15//14 14//14
f 23//15 16//15 15//15
f 24//16 9//16 16//16
f 25//17 18//17 17//17
f 26//18 19//18 18//18
f 19//19 28//19 20//19
f 28//20 21//20 20//20
f 29//21 22//21 21//21
f 30//22 23//22 22//22
f 23//23 32//23 24//23
f 32//24 17//24 24//24
f 33//25 26//25 25//25
f 34//26 27//26 26//26
f 27//27 36//27 28//27
f 36//28 29//28 28//28
f 37//29 30//29 29//29
f 38//30 31//30 30//30
f 39//31 32//31 31//31
f 40//32 25//32 32//32
f 41//33 34//33 33//33
f 42//34 35//34 34//34
f 43//35 36//35 35//35
f 44//36 37//36 36//36
f 37//37 46//37 38//37
f 38//38 47//38 39//38
f 39//39 48//39 40//39
f 40//40 41//40 33//40
f 49//41 42//41 41//41
f 50//42 43//42 42//42
f 51//43 44//43 43//43
f 52//44 45//44 44//44
f 53//45 46//45 45//45
f 54//46 47//46 46//46
f 47//47 56//47 48//47
f 48//48 49//48 41//48
f 57//49 50//49 49//49
f 50//50 59//50 51//50
f 59//51 52//51 51//51
f 60//52 53//52 52//52
f 61//53 54//53 53//53
f 62//54 55//54 54//54
f 63//55 56//55 55//55
f 56//56 57//56 49//56
f 65//57 58//57 57//57
f 66//58 59//58 58//58
f 67//59 60//59 59//59
f 68//60 61//60 60//60
f 69//61 62//61 61//61
f 70//62 63//62 62//62
f 71//63 64//63 63//63
f 72//64 57//64 64//64
f 73//65 66//65 65//65
f 74//66 67//66 66//66
f 75//67 68//67 67//67
f 76//68 69//68 68//68
f 69//69 78//69 70//69
f 78//70 71//70 70//70
f 71//71 80//71 72//71
f 80//72 65//72 72//72
f 81//73 74//73 73//73
f 82//74 75//74 74//74
f 75//75 84//75 76//75
f 84//76 77//76 76//76
f 85//77 78//77 77//77
f 86//78 79//78 78//78
f 87//79 80//79 79//79
f 88//80 73//80 80//80
f 89//4 82//4 81//4
f 82//3 91//3 83//3
f 91//2 84//2 83//2
f 92//1 85//1 84//1
f 85//8 94//8 86//8
f 86//7 95//7 87//7
f 95//6 88//6 87//6
f 96//5 81//5 88//5
f 97//12 90//12 89//12
f 98//11 91//11 90//11
f 99//10 92//10 91//10
f 100//9 93//9 92//9
f 101//16 94//16 93//16
f 102//15 95//15 94//15
f 103//14 96//14 95//14
f 104//13 89//13 96//13
f 105//20 98//20 97//20
f 106//19 99//19 98//19
f 107//18 100//18 99//18
f 108//17 101//17 100//17
f 109//24 102//24 101//24
f 110//23 103//23 102//23
f 111//22 104//22 103//22
f 104//21 105//21 97//21
f 105//28 114//28 106//28
f 114//27 107//27 106//27
f 107//26 116//26 108//26
f 116//25 109//25 108//25
f 117//32 110//32 109//32
f 118//31 111//31 110//31
f 119//30 112//30 111//30
f 120//29 105//29 112//29
f 121//36 114//36 113//36
f 114//35 123//35 115//35
f 123//34 116//34 115//34
f 124//33 117//33 116//33
f 117//40 126//40 118//40
f 126//39 119//39 118//39
f 127//38 120//38 119//38
f 128//37 113//37 120//37
f 129//44 122//44 121//44
f 130//43 123//43 122//43
f 131//42 124//42 123//42
f 132//41 125//41 124//41
f 133//48 126//48 125//48
f 134//47 127//47 126//47
f 135//46 128//46 127//46
f 128//45 129//45 121//45
f 137//52 130//52 129//52
f 138//51 131//51 130//51
f 131//50 140//50 132//50
f 140//49 133//49 132//49
f 133//56 142//56 134//56
f 142//55 135//55 134//55
f 143//54 136//54 135//54
f 136//53 137//53 129//53
f 145//60 138//60 137//60
f 146//59 139//59 138//59
f 139//58 148//58 140//58
f 148//57 141//57 140//57
f 149//64 142//64 141//64
f 150//63 143//63 142//63
f 151//62 144//62 143//62
f 152//61 137//61 144//61
f 153//68 146//68 145//68
f 146//67 155//67 147//67
f 147//66 156//66 148//66
f 156//65 149//65 148//65
f 157//72 150//72 149//72
f 158//71 151//71 150//71
f 159//70 152//70 151//70
f 160//69 145//69 152//69
f 1//76 154//76 153//76
f 2//75 155//75 154//75
f 3//74 156//74 155//74
f 4//73 157//73 156//73
f 157//80 6//80 158//80
f 6//79 159//79 158//79
f 7//78 160//78 159//78
f 8//77 153//77 160//77
f 9//1 10//1 2//1
f 10//2 11//2 3//2
f 11//3 12//3 4//3
f 12//4 13//4 5//4
f 13//5 14//5 6//5
f 14//6 15//6 7//6
f 15//7 16//7 8//7
f 8//8 16//8 9//8
f 17//9 18//9 10//9
f 18//10 19//10 11//10
f 19//11 20//11 12//11
f 20//12 21//12 13//12
f 21//13 22//13 14//13
f 22//14 23//14 15//14
f 23//15 24//15 16//15
f 24//16 17//16 9//16
f 25//17 26//17 18//17
f 26//18 27//18 19//18
f 19//19 27//19 28//19
f 28//20 29//20 21//20
f 29//21 30//21 22//21
f 30//22 31//22 23//22
f 23//23 31//23 32//23
f 32//24 25//24 17//24
f 33//25 34//25 26//25
f 34//26 35//26 27//26
f 27//27 35//27 36//27
f 36//28 37//28 29//28
f 37//29 38//29 30//29
f 38//30 39//30 31//30
f 39//31 40//31 32//31
f 40//32 33//32 25//32
f 41//33 42//33 34//33
f 42//34 43//34 35//34
f 43//35 44//35 36//35
f 44//36 45//36 37//36
f 37//37 45//37 46//37
f 38//38 46//38 47//38
f 39//39 47//39 48//39
f 40//40 48//40 41//40
f 49//41 50//41 42//41
f 50//42 51//42 43//42
f 51//43 52//43 44//43
f 52//44 53//44 45//44
f 53//45 54//45 46//45
f 54//46 55//46 47//46
f 47//47 55//47 56//47
f 48//48 56//48 49//48
f 57//49 58//49 50//49
f 50//50 58//50 59//50
f 59//51 60//51 52//51
f 60//52 61//52 53//52
f 61//53 62//53 54//53
f 62//54 63//54 55//54
f 63//55 64//55 56//55
f 56//56 64//56 57//56
f 65//57 66//57 58//57
f 66//58 67//58 59//58
f 67//59 68//59 60//59
f 68//60 69//60 61//60
f 69//61 70//61 62//61
f 70//62 71//62 63//62
f 71//63 72//63 64//63
f 72//64 65//64 57//64
f 73//65 74//65 66//65
f 74//66 75//66 67//66
f 75//67 76//67 68//67
f 76//68 77//68 69//68
f 69//69 77//69 78//69
f 78//70 79//70 71//70
f 71//71 79//71 80//71
f 80//72 73//72 65//72
f 81//73 82//73 74//73
f 82//74 83//74 75//74
f 75//75 83//75 84//75
f 84//76 85//76 77//76
f 85//77 86//77 78//77
f 86//78 87//78 79//78
f 87//79 88//79 80//79
f 88//80 81//80 73//80
f 89//4 90//4 82//4
f 82//3 90//3 91//3
f 91//2 92//2 84//2
f 92//1 93//1 85//1
f 85//8 93//8 94//8
f 86//7 94//7 95//7
f 95//6 96//6 88//6
f 96//5 89//5 81//5
f 97//12 98//12 90//12
f 98//11 99//11 91//11
f 99//10 100//10 92//10
f 100//9 101//9 93//9
f 101//16 102//16 94//16
f 102//15 103//15 95//15
f 103//14 104//14 96//14
f 104//13 97//13 89//13
f 105//20 106//20 98//20
f 106//19 107//19 99//19
f 107//18 108//18 100//18
f 108//17 109//17 101//17
f 109//24 110//24 102//24
f 110//23 111//23 103//23
f 111//22 112//22 104//22
f 104//21 112//21 105//21
f 105//28 113//28 114//28
f 114//27 115//27 107//27
f 107//26 115//26 116//26
f 116//25 117//25 109//25
f 117//32 118//32 110//32
f 118//31 119//31 111//31
f 119//30 120//30 112//30
f 120//29 113//29 105//29
f 121//36 122//36 114//36
f 114//35 122//35 123//35
f 123//34 124//34 116//34
f 124//33 125//33 117//33
f 117//40 125//40 126//40
f 126//39 127//39 119//39
f 127//38 128//38 120//38
f 128//37 121//37 113//37
f 129//44 130//44 122//44
f 130//43 131//43 123//43
f 131//42 132//42 124//42
f 132//41 133//41 125//41
f 133//48 134//48 126//48
f 134//47 135//47 127//47
f 135//46 136//46 128//46
f 128//45 136//45 129//45
f 137//52 138//52 130//52
f 138//51 139//51 131//51
f 131//50 139//50 140//50
f 140//49 141//49 133//49
f 133//56 141//56 142//56
f 142//55 143//55 135//55
f 143//54 144//54 136//54
f 136//53 144//53 137//53
f 145//60 146//60 138//60
f 146//59 147//59 139//59
f 139//58 147//58 148//58
f 148//57 149//57 141//57
f 149//64 150//64 142//64
f 150//63 151//63 143//63
f 151//62 152//62 144//62
f 152//61 145//61 137//61
f 153//68 154//68 146//68
f 146//67 154//67 155//67
f 147//66 155//66 156//66
f 156//65 157//65 149//65
f 157//72 158//72 150//72
f 158//71 159//71 151//71
f 159//70 160//70 152//70
f 160//69 153//69 145//69
f 1//76 2//76 154//76
f 2//75 3//75 155//75
f 3//74 4//74 156//74
f 4//73 5//73 157//73
f 157//80 5//80 6//80
f 6//79 7//79 159//79
f 7//78 8//78 160//78
f 8//77 1//77 153//77
