# Blender 3.3.1
# www.blender.org
mtllib untitled.mtl
o Cone
v 1.000000 0.000000 -1.000000
v 0.923880 -0.382683 -1.000000
v 0.707107 -0.707107 -1.000000
v 0.382683 -0.923880 -1.000000
v 0.000000 -1.000000 -1.000000
v -0.382683 -0.923880 -1.000000
v -0.707107 -0.707107 -1.000000
v -0.923880 -0.382683 -1.000000
v -1.000000 0.000000 -1.000000
v -0.923880 0.382683 -1.000000
v -0.707107 0.707107 -1.000000
v -0.382683 0.923880 -1.000000
v 0.000000 1.000000 -1.000000
v 0.382683 0.923880 -1.000000
v 0.707107 0.707107 -1.000000
v 0.923880 0.382683 -1.000000
v 0.000000 0.000000 1.000000
vn 0.8806 -0.1752 0.4403
vn 0.7465 -0.4988 0.4403
vn 0.4988 -0.7465 0.4403
vn 0.1752 -0.8806 0.4403
vn -0.1752 -0.8806 0.4403
vn -0.4988 -0.7465 0.4403
vn -0.7465 -0.4988 0.4403
vn -0.8806 -0.1752 0.4403
vn -0.8806 0.1752 0.4403
vn -0.7465 0.4988 0.4403
vn -0.4988 0.7465 0.4403
vn -0.1752 0.8806 0.4403
vn 0.1752 0.8806 0.4403
vn 0.4988 0.7465 0.4403
vn -0.0000 -0.0000 -1.0000
vn 0.7465 0.4988 0.4403
vn 0.8806 0.1752 0.4403
vt 0.250000 0.490000
vt 0.750000 0.490000
vt 0.341844 0.471731
vt 0.841844 0.471731
vt 0.419706 0.419706
vt 0.919706 0.419706
vt 0.471731 0.341844
vt 0.971731 0.341844
vt 0.490000 0.250000
vt 0.990000 0.250000
vt 0.471731 0.158156
vt 0.971731 0.158156
vt 0.419706 0.080294
vt 0.919706 0.080294
vt 0.341844 0.028269
vt 0.841844 0.028269
vt 0.250000 0.010000
vt 0.750000 0.010000
vt 0.158156 0.028269
vt 0.658156 0.028269
vt 0.080294 0.080294
vt 0.580294 0.080294
vt 0.028269 0.158156
vt 0.528269 0.158156
vt 0.010000 0.250000
vt 0.510000 0.250000
vt 0.028269 0.341844
vt 0.528269 0.341844
vt 0.080294 0.419706
vt 0.580294 0.419706
vt 0.158156 0.471731
vt 0.658156 0.471731
vt 0.250000 0.250000
s 0
f 1/1/1 17/33/1 2/3/1
f 2/3/2 17/33/2 3/5/2
f 3/5/3 17/33/3 4/7/3
f 4/7/4 17/33/4 5/9/4
f 5/9/5 17/33/5 6/11/5
f 6/11/6 17/33/6 7/13/6
f 7/13/7 17/33/7 8/15/7
f 8/15/8 17/33/8 9/17/8
f 9/17/9 17/33/9 10/19/9
f 10/19/10 17/33/10 11/21/10
f 11/21/11 17/33/11 12/23/11
f 12/23/12 17/33/12 13/25/12
f 13/25/13 17/33/13 14/27/13
f 14/27/14 17/33/14 15/29/14
f 8/16/15 12/24/15 16/32/15
f 15/29/16 17/33/16 16/31/16
f 16/31/17 17/33/17 1/1/17
f 16/32/15 1/2/15 2/4/15
f 2/4/15 3/6/15 4/8/15
f 4/8/15 5/10/15 6/12/15
f 6/12/15 7/14/15 8/16/15
f 8/16/15 9/18/15 10/20/15
f 10/20/15 11/22/15 12/24/15
f 12/24/15 13/26/15 14/28/15
f 14/28/15 15/30/15 16/32/15
f 16/32/15 2/4/15 4/8/15
f 4/8/15 6/12/15 8/16/15
f 8/16/15 10/20/15 12/24/15
f 12/24/15 14/28/15 16/32/15
f 16/32/15 4/8/15 8/16/15
