# Blender 3.3.1
# www.blender.org
mtllib torus4.mtl
o Torus
v 1.250000 0.000000 0.000000
v 1.125000 0.216506 0.000000
v 0.875000 0.216506 0.000000
v 0.750000 0.000000 0.000000
v 0.875000 -0.216506 0.000000
v 1.125000 -0.216506 0.000000
v 0.883883 0.000000 -0.883884
v 0.795495 0.216506 -0.795495
v 0.618718 0.216506 -0.618719
v 0.530330 0.000000 -0.530330
v 0.618718 -0.216506 -0.618719
v 0.795495 -0.216506 -0.795495
v 0.000000 0.000000 -1.250000
v 0.000000 0.216506 -1.125000
v 0.000000 0.216506 -0.875000
v 0.000000 0.000000 -0.750000
v 0.000000 -0.216506 -0.875000
v 0.000000 -0.216506 -1.125000
v -0.883884 0.000000 -0.883883
v -0.795495 0.216506 -0.795495
v -0.618719 0.216506 -0.618718
v -0.530330 0.000000 -0.530330
v -0.618719 -0.216506 -0.618718
v -0.795495 -0.216506 -0.795495
v -1.250000 0.000000 -0.000000
v -1.125000 0.216506 -0.000000
v -0.875000 0.216506 -0.000000
v -0.750000 0.000000 -0.000000
v -0.875000 -0.216506 -0.000000
v -1.125000 -0.216506 -0.000000
v -0.883884 0.000000 0.883883
v -0.795495 0.216506 0.795495
v -0.618719 0.216506 0.618718
v -0.530330 0.000000 0.530330
v -0.618719 -0.216506 0.618718
v -0.795495 -0.216506 0.795495
v 0.000000 0.000000 1.250000
v 0.000000 0.216506 1.125000
v 0.000000 0.216506 0.875000
v 0.000000 0.000000 0.750000
v 0.000000 -0.216506 0.875000
v 0.000000 -0.216506 1.125000
v 0.883883 0.000000 0.883884
v 0.795495 0.216506 0.795496
v 0.618718 0.216506 0.618719
v 0.530330 0.000000 0.530330
v 0.618718 -0.216506 0.618719
v 0.795495 -0.216506 0.795496
vn 0.8152 0.4706 -0.3377
vn -0.0000 1.0000 -0.0000
vn -0.8152 0.4706 0.3377
vn -0.8152 -0.4706 0.3377
vn -0.0000 -1.0000 -0.0000
vn 0.8152 -0.4706 -0.3377
vn 0.3377 0.4706 -0.8152
vn -0.3377 0.4706 0.8152
vn -0.3377 -0.4706 0.8152
vn 0.3377 -0.4706 -0.8152
vn -0.3377 0.4706 -0.8152
vn 0.3377 0.4706 0.8152
vn 0.3377 -0.4706 0.8152
vn -0.3377 -0.4706 -0.8152
vn -0.8152 0.4706 -0.3377
vn 0.8152 0.4706 0.3377
vn 0.8152 -0.4706 0.3377
vn -0.8152 -0.4706 -0.3377
vt 0.500000 0.500000
vt 0.500000 0.666667
vt 0.500000 0.833333
vt 0.500000 1.000000
vt 0.500000 -0.000000
vt 0.500000 0.166667
vt 0.500000 0.333333
vt 0.625000 0.500000
vt 0.625000 0.666667
vt 0.625000 0.833333
vt 0.625000 -0.000000
vt 0.625000 1.000000
vt 0.625000 0.166667
vt 0.625000 0.333333
vt 0.750000 0.500000
vt 0.750000 0.666667
vt 0.750000 0.833333
vt 0.750000 -0.000000
vt 0.750000 1.000000
vt 0.750000 0.166667
vt 0.750000 0.333333
vt 0.875000 0.500000
vt 0.875000 0.666667
vt 0.875000 0.833333
vt 0.875000 -0.000000
vt 0.875000 1.000000
vt 0.875000 0.166667
vt 0.875000 0.333333
vt 1.000000 0.500000
vt 0.000000 0.500000
vt 1.000000 0.666667
vt 0.000000 0.666667
vt 1.000000 0.833333
vt 0.000000 0.833333
vt 0.000000 -0.000000
vt 1.000000 1.000000
vt 1.000000 -0.000000
vt 0.000000 1.000000
vt 1.000000 0.166667
vt 0.000000 0.166667
vt 0.000000 0.333333
vt 1.000000 0.333333
vt 0.125000 0.500000
vt 0.125000 0.666667
vt 0.125000 0.833333
vt 0.125000 -0.000000
vt 0.125000 1.000000
vt 0.125000 0.166667
vt 0.125000 0.333333
vt 0.250000 0.500000
vt 0.250000 0.666667
vt 0.250000 0.833333
vt 0.250000 -0.000000
vt 0.250000 1.000000
vt 0.250000 0.166667
vt 0.250000 0.333333
vt 0.375000 0.500000
vt 0.375000 0.666667
vt 0.375000 0.833333
vt 0.375000 -0.000000
vt 0.375000 1.000000
vt 0.375000 0.166667
vt 0.375000 0.333333
s 0
f 1/1/1 8/9/1 2/2/1
f 8/9/2 3/3/2 2/2/2
f 3/3/3 10/12/3 4/4/3
f 10/11/4 5/6/4 4/5/4
f 11/13/5 6/7/5 5/6/5
f 12/14/6 1/1/6 6/7/6
f 13/15/7 8/9/7 7/8/7
f 8/9/2 15/17/2 9/10/2
f 15/17/8 10/12/8 9/10/8
f 16/18/9 11/13/9 10/11/9
f 17/20/5 12/14/5 11/13/5
f 18/21/10 7/8/10 12/14/10
f 19/22/11 14/16/11 13/15/11
f 20/23/2 15/17/2 14/16/2
f 21/24/12 16/19/12 15/17/12
f 22/25/13 17/20/13 16/18/13
f 23/27/5 18/21/5 17/20/5
f 24/28/14 13/15/14 18/21/14
f 25/29/15 20/23/15 19/22/15
f 26/31/2 21/24/2 20/23/2
f 27/33/16 22/26/16 21/24/16
f 28/37/17 23/27/17 22/25/17
f 29/39/5 24/28/5 23/27/5
f 30/42/18 19/22/18 24/28/18
f 31/43/3 26/32/3 25/30/3
f 32/44/2 27/34/2 26/32/2
f 33/45/1 28/38/1 27/34/1
f 34/46/6 29/40/6 28/35/6
f 29/40/5 36/49/5 30/41/5
f 36/49/4 25/30/4 30/41/4
f 37/50/8 32/44/8 31/43/8
f 38/51/2 33/45/2 32/44/2
f 39/52/7 34/47/7 33/45/7
f 40/53/10 35/48/10 34/46/10
f 35/48/5 42/56/5 36/49/5
f 42/56/9 31/43/9 36/49/9
f 43/57/12 38/51/12 37/50/12
f 38/51/2 45/59/2 39/52/2
f 45/59/11 40/54/11 39/52/11
f 46/60/14 41/55/14 40/53/14
f 47/62/5 42/56/5 41/55/5
f 48/63/13 37/50/13 42/56/13
f 1/1/16 44/58/16 43/57/16
f 44/58/2 3/3/2 45/59/2
f 3/3/15 46/61/15 45/59/15
f 4/5/18 47/62/18 46/60/18
f 5/6/5 48/63/5 47/62/5
f 6/7/17 43/57/17 48/63/17
f 1/1/1 7/8/1 8/9/1
f 8/9/2 9/10/2 3/3/2
f 3/3/3 9/10/3 10/12/3
f 10/11/4 11/13/4 5/6/4
f 11/13/5 12/14/5 6/7/5
f 12/14/6 7/8/6 1/1/6
f 13/15/7 14/16/7 8/9/7
f 8/9/2 14/16/2 15/17/2
f 15/17/8 16/19/8 10/12/8
f 16/18/9 17/20/9 11/13/9
f 17/20/5 18/21/5 12/14/5
f 18/21/10 13/15/10 7/8/10
f 19/22/11 20/23/11 14/16/11
f 20/23/2 21/24/2 15/17/2
f 21/24/12 22/26/12 16/19/12
f 22/25/13 23/27/13 17/20/13
f 23/27/5 24/28/5 18/21/5
f 24/28/14 19/22/14 13/15/14
f 25/29/15 26/31/15 20/23/15
f 26/31/2 27/33/2 21/24/2
f 27/33/16 28/36/16 22/26/16
f 28/37/17 29/39/17 23/27/17
f 29/39/5 30/42/5 24/28/5
f 30/42/18 25/29/18 19/22/18
f 31/43/3 32/44/3 26/32/3
f 32/44/2 33/45/2 27/34/2
f 33/45/1 34/47/1 28/38/1
f 34/46/6 35/48/6 29/40/6
f 29/40/5 35/48/5 36/49/5
f 36/49/4 31/43/4 25/30/4
f 37/50/8 38/51/8 32/44/8
f 38/51/2 39/52/2 33/45/2
f 39/52/7 40/54/7 34/47/7
f 40/53/10 41/55/10 35/48/10
f 35/48/5 41/55/5 42/56/5
f 42/56/9 37/50/9 31/43/9
f 43/57/12 44/58/12 38/51/12
f 38/51/2 44/58/2 45/59/2
f 45/59/11 46/61/11 40/54/11
f 46/60/14 47/62/14 41/55/14
f 47/62/5 48/63/5 42/56/5
f 48/63/13 43/57/13 37/50/13
f 1/1/16 2/2/16 44/58/16
f 44/58/2 2/2/2 3/3/2
f 3/3/15 4/4/15 46/61/15
f 4/5/18 5/6/18 47/62/18
f 5/6/5 6/7/5 48/63/5
f 6/7/17 1/1/17 43/57/17
