# Blender 3.3.1
# www.blender.org
mtllib untitled.mtl
o Torus
v 1.250000 0.000000 0.000000
v 1.000000 0.250000 0.000000
v 0.750000 0.000000 0.000000
v 1.000000 -0.250000 0.000000
v 0.000000 0.000000 -1.250000
v 0.000000 0.250000 -1.000000
v 0.000000 0.000000 -0.750000
v 0.000000 -0.250000 -1.000000
v -1.250000 0.000000 -0.000000
v -1.000000 0.250000 -0.000000
v -0.750000 0.000000 -0.000000
v -1.000000 -0.250000 -0.000000
v 0.000000 0.000000 1.250000
v 0.000000 0.250000 1.000000
v 0.000000 0.000000 0.750000
v 0.000000 -0.250000 1.000000
vn 0.5774 0.5774 -0.5774
vn -0.5774 0.5774 0.5774
vn -0.5774 -0.5774 0.5774
vn 0.5774 -0.5774 -0.5774
vn -0.5774 0.5774 -0.5774
vn 0.5774 0.5774 0.5774
vn 0.5774 -0.5774 0.5774
vn -0.5774 -0.5774 -0.5774
s 0
f 1//1 5//1 6//1 2//1
f 2//2 6//2 7//2 3//2
f 3//3 7//3 8//3 4//3
f 4//4 8//4 5//4 1//4
f 5//5 9//5 10//5 6//5
f 6//6 10//6 11//6 7//6
f 7//7 11//7 12//7 8//7
f 8//8 12//8 9//8 5//8
f 9//2 13//2 14//2 10//2
f 10//1 14//1 15//1 11//1
f 11//4 15//4 16//4 12//4
f 12//3 16//3 13//3 9//3
f 13//6 1//6 2//6 14//6
f 14//5 2//5 3//5 15//5
f 15//8 3//8 4//8 16//8
f 16//7 4//7 1//7 13//7
