# Blender 3.3.1
# www.blender.org
mtllib torus3.mtl
o Torus
v 1.250000 0.000000 0.000000
v 1.202254 0.146946 0.000000
v 1.077254 0.237764 0.000000
v 0.922746 0.237764 0.000000
v 0.797746 0.146946 0.000000
v 0.750000 0.000000 0.000000
v 0.797746 -0.146946 0.000000
v 0.922746 -0.237764 0.000000
v 1.077254 -0.237764 0.000000
v 1.202254 -0.146946 0.000000
v 1.188821 0.000000 -0.386271
v 1.143412 0.146946 -0.371517
v 1.024530 0.237764 -0.332890
v 0.877583 0.237764 -0.285144
v 0.758701 0.146946 -0.246517
v 0.713292 0.000000 -0.231763
v 0.758701 -0.146946 -0.246517
v 0.877583 -0.237764 -0.285144
v 1.024530 -0.237764 -0.332890
v 1.143412 -0.146946 -0.371517
v 1.011271 0.000000 -0.734732
v 0.972644 0.146946 -0.706667
v 0.871517 0.237764 -0.633194
v 0.746517 0.237764 -0.542376
v 0.645390 0.146946 -0.468903
v 0.606763 0.000000 -0.440839
v 0.645390 -0.146946 -0.468903
v 0.746517 -0.237764 -0.542376
v 0.871517 -0.237764 -0.633194
v 0.972644 -0.146946 -0.706667
v 0.734731 0.000000 -1.011271
v 0.706667 0.146946 -0.972644
v 0.633194 0.237764 -0.871517
v 0.542376 0.237764 -0.746517
v 0.468903 0.146946 -0.645390
v 0.440839 0.000000 -0.606763
v 0.468903 -0.146946 -0.645390
v 0.542376 -0.237764 -0.746517
v 0.633194 -0.237764 -0.871517
v 0.706667 -0.146946 -0.972644
v 0.386271 0.000000 -1.188821
v 0.371517 0.146946 -1.143412
v 0.332890 0.237764 -1.024530
v 0.285144 0.237764 -0.877583
v 0.246517 0.146946 -0.758701
v 0.231763 0.000000 -0.713292
v 0.246517 -0.146946 -0.758701
v 0.285144 -0.237764 -0.877583
v 0.332890 -0.237764 -1.024530
v 0.371517 -0.146946 -1.143412
v 0.000000 0.000000 -1.250000
v 0.000000 0.146946 -1.202254
v 0.000000 0.237764 -1.077254
v 0.000000 0.237764 -0.922746
v 0.000000 0.146946 -0.797746
v 0.000000 0.000000 -0.750000
v 0.000000 -0.146946 -0.797746
v 0.000000 -0.237764 -0.922746
v 0.000000 -0.237764 -1.077254
v 0.000000 -0.146946 -1.202254
v -0.386271 0.000000 -1.188821
v -0.371517 0.146946 -1.143412
v -0.332890 0.237764 -1.024530
v -0.285144 0.237764 -0.877583
v -0.246517 0.146946 -0.758701
v -0.231763 0.000000 -0.713292
v -0.246517 -0.146946 -0.758701
v -0.285144 -0.237764 -0.877583
v -0.332890 -0.237764 -1.024530
v -0.371517 -0.146946 -1.143412
v -0.734732 0.000000 -1.011271
v -0.706668 0.146946 -0.972644
v -0.633194 0.237764 -0.871517
v -0.542377 0.237764 -0.746517
v -0.468903 0.146946 -0.645390
v -0.440839 0.000000 -0.606763
v -0.468903 -0.146946 -0.645390
v -0.542377 -0.237764 -0.746517
v -0.633194 -0.237764 -0.871517
v -0.706668 -0.146946 -0.972644
v -1.011271 0.000000 -0.734731
v -0.972644 0.146946 -0.706667
v -0.871517 0.237764 -0.633194
v -0.746517 0.237764 -0.542376
v -0.645390 0.146946 -0.468903
v -0.606763 0.000000 -0.440839
v -0.645390 -0.146946 -0.468903
v -0.746517 -0.237764 -0.542376
v -0.871517 -0.237764 -0.633194
v -0.972644 -0.146946 -0.706667
v -1.188821 0.000000 -0.386271
v -1.143412 0.146946 -0.371517
v -1.024530 0.237764 -0.332890
v -0.877583 0.237764 -0.285144
v -0.758701 0.146946 -0.246517
v -0.713292 0.000000 -0.231763
v -0.758701 -0.146946 -0.246517
v -0.877583 -0.237764 -0.285144
v -1.024530 -0.237764 -0.332890
v -1.143412 -0.146946 -0.371517
v -1.250000 0.000000 -0.000000
v -1.202254 0.146946 -0.000000
v -1.077254 0.237764 -0.000000
v -0.922746 0.237764 -0.000000
v -0.797746 0.146946 -0.000000
v -0.750000 0.000000 -0.000000
v -0.797746 -0.146946 -0.000000
v -0.922746 -0.237764 -0.000000
v -1.077254 -0.237764 -0.000000
v -1.202254 -0.146946 -0.000000
v -1.188821 0.000000 0.386271
v -1.143412 0.146946 0.371517
v -1.024530 0.237764 0.332889
v -0.877584 0.237764 0.285144
v -0.758701 0.146946 0.246517
v -0.713292 0.000000 0.231762
v -0.758701 -0.146946 0.246517
v -0.877584 -0.237764 0.285144
v -1.024530 -0.237764 0.332889
v -1.143412 -0.146946 0.371517
v -1.011271 0.000000 0.734731
v -0.972644 0.146946 0.706667
v -0.871517 0.237764 0.633194
v -0.746517 0.237764 0.542376
v -0.645390 0.146946 0.468903
v -0.606763 0.000000 0.440839
v -0.645390 -0.146946 0.468903
v -0.746517 -0.237764 0.542376
v -0.871517 -0.237764 0.633194
v -0.972644 -0.146946 0.706667
v -0.734732 0.000000 1.011271
v -0.706668 0.146946 0.972644
v -0.633194 0.237764 0.871517
v -0.542377 0.237764 0.746517
v -0.468903 0.146946 0.645390
v -0.440839 0.000000 0.606763
v -0.468903 -0.146946 0.645390
v -0.542377 -0.237764 0.746517
v -0.633194 -0.237764 0.871517
v -0.706668 -0.146946 0.972644
v -0.386271 0.000000 1.188821
v -0.371517 0.146946 1.143412
v -0.332890 0.237764 1.024530
v -0.285144 0.237764 0.877583
v -0.246517 0.146946 0.758701
v -0.231763 0.000000 0.713292
v -0.246517 -0.146946 0.758701
v -0.285144 -0.237764 0.877583
v -0.332890 -0.237764 1.024530
v -0.371517 -0.146946 1.143412
v 0.000000 0.000000 1.250000
v 0.000000 0.146946 1.202254
v 0.000000 0.237764 1.077254
v 0.000000 0.237764 0.922746
v 0.000000 0.146946 0.797746
v 0.000000 0.000000 0.750000
v 0.000000 -0.146946 0.797746
v 0.000000 -0.237764 0.922746
v 0.000000 -0.237764 1.077254
v 0.000000 -0.146946 1.202254
v 0.386271 0.000000 1.188821
v 0.371517 0.146946 1.143412
v 0.332890 0.237764 1.024530
v 0.285144 0.237764 0.877583
v 0.246517 0.146946 0.758701
v 0.231763 0.000000 0.713292
v 0.246517 -0.146946 0.758701
v 0.285144 -0.237764 0.877583
v 0.332890 -0.237764 1.024530
v 0.371517 -0.146946 1.143412
v 0.734731 0.000000 1.011272
v 0.706667 0.146946 0.972645
v 0.633194 0.237764 0.871517
v 0.542376 0.237764 0.746517
v 0.468903 0.146946 0.645390
v 0.440839 0.000000 0.606763
v 0.468903 -0.146946 0.645390
v 0.542376 -0.237764 0.746517
v 0.633194 -0.237764 0.871517
v 0.706667 -0.146946 0.972645
v 1.011271 0.000000 0.734732
v 0.972644 0.146946 0.706668
v 0.871517 0.237764 0.633195
v 0.746517 0.237764 0.542377
v 0.645390 0.146946 0.468904
v 0.606763 0.000000 0.440839
v 0.645390 -0.146946 0.468904
v 0.746517 -0.237764 0.542377
v 0.871517 -0.237764 0.633195
v 0.972644 -0.146946 0.706668
v 1.188820 0.000000 0.386272
v 1.143412 0.146946 0.371517
v 1.024530 0.237764 0.332890
v 0.877583 0.237764 0.285144
v 0.758701 0.146946 0.246517
v 0.713292 0.000000 0.231763
v 0.758701 -0.146946 0.246517
v 0.877583 -0.237764 0.285144
v 1.024530 -0.237764 0.332890
v 1.143412 -0.146946 0.371517
vn 0.9404 0.3056 -0.1490
vn 0.5853 0.8055 -0.0927
vn -0.0000 1.0000 -0.0000
vn -0.5853 0.8055 0.0927
vn -0.9404 0.3056 0.1490
vn -0.9404 -0.3056 0.1490
vn -0.5853 -0.8055 0.0927
vn -0.0000 -1.0000 -0.0000
vn 0.5853 -0.8055 -0.0927
vn 0.9404 -0.3056 -0.1490
vn 0.8484 0.3056 -0.4323
vn 0.5280 0.8055 -0.2690
vn -0.5280 0.8055 0.2690
vn -0.8484 0.3056 0.4323
vn -0.8484 -0.3056 0.4323
vn -0.5280 -0.8055 0.2690
vn 0.5280 -0.8055 -0.2690
vn 0.8484 -0.3056 -0.4323
vn 0.6733 0.3056 -0.6733
vn 0.4190 0.8055 -0.4190
vn -0.4190 0.8055 0.4190
vn -0.6733 0.3056 0.6733
vn -0.6733 -0.3056 0.6733
vn -0.4190 -0.8055 0.4190
vn 0.4190 -0.8055 -0.4190
vn 0.6733 -0.3056 -0.6733
vn 0.4323 0.3056 -0.8484
vn 0.2690 0.8055 -0.5280
vn -0.2690 0.8055 0.5280
vn -0.4323 0.3056 0.8484
vn -0.4323 -0.3056 0.8484
vn -0.2690 -0.8055 0.5280
vn 0.2690 -0.8055 -0.5280
vn 0.4323 -0.3056 -0.8484
vn 0.1490 0.3056 -0.9404
vn 0.0927 0.8055 -0.5853
vn -0.0927 0.8055 0.5853
vn -0.1490 0.3056 0.9404
vn -0.1490 -0.3056 0.9404
vn -0.0927 -0.8055 0.5853
vn 0.0927 -0.8055 -0.5853
vn 0.1490 -0.3056 -0.9404
vn -0.1490 0.3056 -0.9404
vn -0.0927 0.8055 -0.5853
vn 0.0927 0.8055 0.5853
vn 0.1490 0.3056 0.9404
vn 0.1490 -0.3056 0.9404
vn 0.0927 -0.8055 0.5853
vn -0.0927 -0.8055 -0.5853
vn -0.1490 -0.3056 -0.9404
vn -0.4323 0.3056 -0.8484
vn -0.2690 0.8055 -0.5280
vn 0.2690 0.8055 0.5280
vn 0.4323 0.3056 0.8484
vn 0.4323 -0.3056 0.8484
vn 0.2690 -0.8055 0.5280
vn -0.2690 -0.8055 -0.5280
vn -0.4323 -0.3056 -0.8484
vn -0.6733 0.3056 -0.6733
vn -0.4190 0.8055 -0.4190
vn 0.4190 0.8055 0.4190
vn 0.6733 0.3056 0.6733
vn 0.6733 -0.3056 0.6733
vn 0.4190 -0.8055 0.4190
vn -0.4190 -0.8055 -0.4190
vn -0.6733 -0.3056 -0.6733
vn -0.8484 0.3056 -0.4323
vn -0.5280 0.8055 -0.2690
vn 0.5280 0.8055 0.2690
vn 0.8484 0.3056 0.4323
vn 0.8484 -0.3056 0.4323
vn 0.5280 -0.8055 0.2690
vn -0.5280 -0.8055 -0.2690
vn -0.8484 -0.3056 -0.4323
vn -0.9404 0.3056 -0.1490
vn -0.5853 0.8055 -0.0927
vn 0.5853 0.8055 0.0927
vn 0.9404 0.3056 0.1490
vn 0.9404 -0.3056 0.1490
vn 0.5853 -0.8055 0.0927
vn -0.5853 -0.8055 -0.0927
vn -0.9404 -0.3056 -0.1490
vt 0.550000 0.600000
vt 0.550000 0.700000
vt 0.550000 0.800000
vt 0.550000 0.900000
vt 0.550000 1.000000
vt 0.550000 -0.000000
vt 0.550000 0.100000
vt 0.550000 0.200000
vt 0.550000 0.300000
vt 0.550000 0.400000
vt 0.550000 0.500000
vt 0.600000 0.600000
vt 0.600000 0.700000
vt 0.600000 0.800000
vt 0.600000 0.900000
vt 0.600000 1.000000
vt 0.600000 -0.000000
vt 0.600000 0.100000
vt 0.600000 0.200000
vt 0.600000 0.300000
vt 0.600000 0.400000
vt 0.600000 0.500000
vt 0.650000 0.600000
vt 0.650000 0.700000
vt 0.650000 0.800000
vt 0.650000 0.900000
vt 0.650000 1.000000
vt 0.650000 -0.000000
vt 0.650000 0.100000
vt 0.650000 0.200000
vt 0.650000 0.300000
vt 0.650000 0.400000
vt 0.650000 0.500000
vt 0.700000 0.600000
vt 0.700000 0.700000
vt 0.700000 0.800000
vt 0.700000 0.900000
vt 0.700000 1.000000
vt 0.700000 -0.000000
vt 0.700000 0.100000
vt 0.700000 0.200000
vt 0.700000 0.300000
vt 0.700000 0.400000
vt 0.700000 0.500000
vt 0.750000 0.600000
vt 0.750000 0.700000
vt 0.750000 0.800000
vt 0.750000 0.900000
vt 0.750000 1.000000
vt 0.750000 -0.000000
vt 0.750000 0.100000
vt 0.750000 0.200000
vt 0.750000 0.300000
vt 0.750000 0.400000
vt 0.750000 0.500000
vt 0.800000 0.600000
vt 0.800000 0.700000
vt 0.800000 0.800000
vt 0.800000 0.900000
vt 0.800000 1.000000
vt 0.800000 -0.000000
vt 0.800000 0.100000
vt 0.800000 0.200000
vt 0.800000 0.300000
vt 0.800000 0.400000
vt 0.800000 0.500000
vt 0.850000 0.600000
vt 0.850000 0.700000
vt 0.850000 0.800000
vt 0.850000 0.900000
vt 0.850000 1.000000
vt 0.850000 -0.000000
vt 0.850000 0.100000
vt 0.850000 0.200000
vt 0.850000 0.300000
vt 0.850000 0.400000
vt 0.850000 0.500000
vt 0.900000 0.600000
vt 0.900000 0.700000
vt 0.900000 0.800000
vt 0.900000 0.900000
vt 0.900000 1.000000
vt 0.900000 -0.000000
vt 0.900000 0.100000
vt 0.900000 0.200000
vt 0.900000 0.300000
vt 0.900000 0.400000
vt 0.900000 0.500000
vt 0.950000 0.600000
vt 0.950000 0.700000
vt 0.950000 0.800000
vt 0.950000 0.900000
vt 0.950000 1.000000
vt 0.950000 -0.000000
vt 0.950000 0.100000
vt 0.950000 0.200000
vt 0.950000 0.300000
vt 0.950000 0.400000
vt 0.950000 0.500000
vt 1.000000 0.600000
vt 0.000000 0.600000
vt 1.000000 0.700000
vt 0.000000 0.700000
vt 1.000000 0.800000
vt 0.000000 0.800000
vt 1.000000 0.900000
vt 0.000000 0.900000
vt 1.000000 1.000000
vt 1.000000 -0.000000
vt 0.000000 1.000000
vt 0.000000 -0.000000
vt 1.000000 0.100000
vt 0.000000 0.100000
vt 1.000000 0.200000
vt 0.000000 0.200000
vt 1.000000 0.300000
vt 0.000000 0.300000
vt 1.000000 0.400000
vt 0.000000 0.400000
vt 1.000000 0.500000
vt 0.000000 0.500000
vt 0.050000 0.600000
vt 0.050000 0.700000
vt 0.050000 0.800000
vt 0.050000 0.900000
vt 0.050000 1.000000
vt 0.050000 -0.000000
vt 0.050000 0.100000
vt 0.050000 0.200000
vt 0.050000 0.300000
vt 0.050000 0.400000
vt 0.050000 0.500000
vt 0.100000 0.600000
vt 0.100000 0.700000
vt 0.100000 0.800000
vt 0.100000 0.900000
vt 0.100000 1.000000
vt 0.100000 -0.000000
vt 0.100000 0.100000
vt 0.100000 0.200000
vt 0.100000 0.300000
vt 0.100000 0.400000
vt 0.100000 0.500000
vt 0.150000 0.600000
vt 0.150000 0.700000
vt 0.150000 0.800000
vt 0.150000 0.900000
vt 0.150000 1.000000
vt 0.150000 -0.000000
vt 0.150000 0.100000
vt 0.150000 0.200000
vt 0.150000 0.300000
vt 0.150000 0.400000
vt 0.150000 0.500000
vt 0.200000 0.600000
vt 0.200000 0.700000
vt 0.200000 0.800000
vt 0.200000 0.900000
vt 0.200000 1.000000
vt 0.200000 -0.000000
vt 0.200000 0.100000
vt 0.200000 0.200000
vt 0.200000 0.300000
vt 0.200000 0.400000
vt 0.200000 0.500000
vt 0.250000 0.600000
vt 0.250000 0.700000
vt 0.250000 0.800000
vt 0.250000 0.900000
vt 0.250000 1.000000
vt 0.250000 -0.000000
vt 0.250000 0.100000
vt 0.250000 0.200000
vt 0.250000 0.300000
vt 0.250000 0.400000
vt 0.250000 0.500000
vt 0.300000 0.600000
vt 0.300000 0.700000
vt 0.300000 0.800000
vt 0.300000 0.900000
vt 0.300000 1.000000
vt 0.300000 -0.000000
vt 0.300000 0.100000
vt 0.300000 0.200000
vt 0.300000 0.300000
vt 0.300000 0.400000
vt 0.300000 0.500000
vt 0.350000 0.600000
vt 0.350000 0.700000
vt 0.350000 0.800000
vt 0.350000 0.900000
vt 0.350000 1.000000
vt 0.350000 -0.000000
vt 0.350000 0.100000
vt 0.350000 0.200000
vt 0.350000 0.300000
vt 0.350000 0.400000
vt 0.350000 0.500000
vt 0.400000 0.600000
vt 0.400000 0.700000
vt 0.400000 0.800000
vt 0.400000 0.900000
vt 0.400000 1.000000
vt 0.400000 -0.000000
vt 0.400000 0.100000
vt 0.400000 0.200000
vt 0.400000 0.300000
vt 0.400000 0.400000
vt 0.400000 0.500000
vt 0.450000 0.600000
vt 0.450000 0.700000
vt 0.450000 0.800000
vt 0.450000 0.900000
vt 0.450000 1.000000
vt 0.450000 -0.000000
vt 0.450000 0.100000
vt 0.450000 0.200000
vt 0.450000 0.300000
vt 0.450000 0.400000
vt 0.450000 0.500000
vt 0.500000 0.600000
vt 0.500000 0.700000
vt 0.500000 0.800000
vt 0.500000 0.900000
vt 0.500000 1.000000
vt 0.500000 -0.000000
vt 0.500000 0.100000
vt 0.500000 0.200000
vt 0.500000 0.300000
vt 0.500000 0.400000
vt 0.500000 0.500000
s 0
f 1/1/1 11/12/1 12/13/1 2/2/1
f 2/2/2 12/13/2 13/14/2 3/3/2
f 3/3/3 13/14/3 14/15/3 4/4/3
f 4/4/4 14/15/4 15/16/4 5/5/4
f 5/6/5 15/17/5 16/18/5 6/7/5
f 6/7/6 16/18/6 17/19/6 7/8/6
f 7/8/7 17/19/7 18/20/7 8/9/7
f 8/9/8 18/20/8 19/21/8 9/10/8
f 9/10/9 19/21/9 20/22/9 10/11/9
f 10/11/10 20/22/10 11/12/10 1/1/10
f 11/12/11 21/23/11 22/24/11 12/13/11
f 12/13/12 22/24/12 23/25/12 13/14/12
f 13/14/3 23/25/3 24/26/3 14/15/3
f 14/15/13 24/26/13 25/27/13 15/16/13
f 15/17/14 25/28/14 26/29/14 16/18/14
f 16/18/15 26/29/15 27/30/15 17/19/15
f 17/19/16 27/30/16 28/31/16 18/20/16
f 18/20/8 28/31/8 29/32/8 19/21/8
f 19/21/17 29/32/17 30/33/17 20/22/17
f 20/22/18 30/33/18 21/23/18 11/12/18
f 21/23/19 31/34/19 32/35/19 22/24/19
f 22/24/20 32/35/20 33/36/20 23/25/20
f 23/25/3 33/36/3 34/37/3 24/26/3
f 24/26/21 34/37/21 35/38/21 25/27/21
f 25/28/22 35/39/22 36/40/22 26/29/22
f 26/29/23 36/40/23 37/41/23 27/30/23
f 27/30/24 37/41/24 38/42/24 28/31/24
f 28/31/8 38/42/8 39/43/8 29/32/8
f 29/32/25 39/43/25 40/44/25 30/33/25
f 30/33/26 40/44/26 31/34/26 21/23/26
f 31/34/27 41/45/27 42/46/27 32/35/27
f 32/35/28 42/46/28 43/47/28 33/36/28
f 33/36/3 43/47/3 44/48/3 34/37/3
f 34/37/29 44/48/29 45/49/29 35/38/29
f 35/39/30 45/50/30 46/51/30 36/40/30
f 36/40/31 46/51/31 47/52/31 37/41/31
f 37/41/32 47/52/32 48/53/32 38/42/32
f 38/42/8 48/53/8 49/54/8 39/43/8
f 39/43/33 49/54/33 50/55/33 40/44/33
f 40/44/34 50/55/34 41/45/34 31/34/34
f 41/45/35 51/56/35 52/57/35 42/46/35
f 42/46/36 52/57/36 53/58/36 43/47/36
f 43/47/3 53/58/3 54/59/3 44/48/3
f 44/48/37 54/59/37 55/60/37 45/49/37
f 45/50/38 55/61/38 56/62/38 46/51/38
f 46/51/39 56/62/39 57/63/39 47/52/39
f 47/52/40 57/63/40 58/64/40 48/53/40
f 48/53/8 58/64/8 59/65/8 49/54/8
f 49/54/41 59/65/41 60/66/41 50/55/41
f 50/55/42 60/66/42 51/56/42 41/45/42
f 51/56/43 61/67/43 62/68/43 52/57/43
f 52/57/44 62/68/44 63/69/44 53/58/44
f 53/58/3 63/69/3 64/70/3 54/59/3
f 54/59/45 64/70/45 65/71/45 55/60/45
f 55/61/46 65/72/46 66/73/46 56/62/46
f 56/62/47 66/73/47 67/74/47 57/63/47
f 57/63/48 67/74/48 68/75/48 58/64/48
f 58/64/8 68/75/8 69/76/8 59/65/8
f 59/65/49 69/76/49 70/77/49 60/66/49
f 60/66/50 70/77/50 61/67/50 51/56/50
f 61/67/51 71/78/51 72/79/51 62/68/51
f 62/68/52 72/79/52 73/80/52 63/69/52
f 63/69/3 73/80/3 74/81/3 64/70/3
f 64/70/53 74/81/53 75/82/53 65/71/53
f 65/72/54 75/83/54 76/84/54 66/73/54
f 66/73/55 76/84/55 77/85/55 67/74/55
f 67/74/56 77/85/56 78/86/56 68/75/56
f 68/75/8 78/86/8 79/87/8 69/76/8
f 69/76/57 79/87/57 80/88/57 70/77/57
f 70/77/58 80/88/58 71/78/58 61/67/58
f 71/78/59 81/89/59 82/90/59 72/79/59
f 72/79/60 82/90/60 83/91/60 73/80/60
f 73/80/3 83/91/3 84/92/3 74/81/3
f 74/81/61 84/92/61 85/93/61 75/82/61
f 75/83/62 85/94/62 86/95/62 76/84/62
f 76/84/63 86/95/63 87/96/63 77/85/63
f 77/85/64 87/96/64 88/97/64 78/86/64
f 78/86/8 88/97/8 89/98/8 79/87/8
f 79/87/65 89/98/65 90/99/65 80/88/65
f 80/88/66 90/99/66 81/89/66 71/78/66
f 81/89/67 91/100/67 92/102/67 82/90/67
f 82/90/68 92/102/68 93/104/68 83/91/68
f 83/91/3 93/104/3 94/106/3 84/92/3
f 84/92/69 94/106/69 95/108/69 85/93/69
f 85/94/70 95/109/70 96/112/70 86/95/70
f 86/95/71 96/112/71 97/114/71 87/96/71
f 87/96/72 97/114/72 98/116/72 88/97/72
f 88/97/8 98/116/8 99/118/8 89/98/8
f 89/98/73 99/118/73 100/120/73 90/99/73
f 90/99/74 100/120/74 91/100/74 81/89/74
f 91/101/75 101/122/75 102/123/75 92/103/75
f 92/103/76 102/123/76 103/124/76 93/105/76
f 93/105/3 103/124/3 104/125/3 94/107/3
f 94/107/77 104/125/77 105/126/77 95/110/77
f 95/111/78 105/127/78 106/128/78 96/113/78
f 96/113/79 106/128/79 107/129/79 97/115/79
f 97/115/80 107/129/80 108/130/80 98/117/80
f 98/117/8 108/130/8 109/131/8 99/119/8
f 99/119/81 109/131/81 110/132/81 100/121/81
f 100/121/82 110/132/82 101/122/82 91/101/82
f 101/122/5 111/133/5 112/134/5 102/123/5
f 102/123/4 112/134/4 113/135/4 103/124/4
f 103/124/3 113/135/3 114/136/3 104/125/3
f 104/125/2 114/136/2 115/137/2 105/126/2
f 105/127/1 115/138/1 116/139/1 106/128/1
f 106/128/10 116/139/10 117/140/10 107/129/10
f 107/129/9 117/140/9 118/141/9 108/130/9
f 108/130/8 118/141/8 119/142/8 109/131/8
f 109/131/7 119/142/7 120/143/7 110/132/7
f 110/132/6 120/143/6 111/133/6 101/122/6
f 111/133/14 121/144/14 122/145/14 112/134/14
f 112/134/13 122/145/13 123/146/13 113/135/13
f 113/135/3 123/146/3 124/147/3 114/136/3
f 114/136/12 124/147/12 125/148/12 115/137/12
f 115/138/11 125/149/11 126/150/11 116/139/11
f 116/139/18 126/150/18 127/151/18 117/140/18
f 117/140/17 127/151/17 128/152/17 118/141/17
f 118/141/8 128/152/8 129/153/8 119/142/8
f 119/142/16 129/153/16 130/154/16 120/143/16
f 120/143/15 130/154/15 121/144/15 111/133/15
f 121/144/22 131/155/22 132/156/22 122/145/22
f 122/145/21 132/156/21 133/157/21 123/146/21
f 123/146/3 133/157/3 134/158/3 124/147/3
f 124/147/20 134/158/20 135/159/20 125/148/20
f 125/149/19 135/160/19 136/161/19 126/150/19
f 126/150/26 136/161/26 137/162/26 127/151/26
f 127/151/25 137/162/25 138/163/25 128/152/25
f 128/152/8 138/163/8 139/164/8 129/153/8
f 129/153/24 139/164/24 140/165/24 130/154/24
f 130/154/23 140/165/23 131/155/23 121/144/23
f 131/155/30 141/166/30 142/167/30 132/156/30
f 132/156/29 142/167/29 143/168/29 133/157/29
f 133/157/3 143/168/3 144/169/3 134/158/3
f 134/158/28 144/169/28 145/170/28 135/159/28
f 135/160/27 145/171/27 146/172/27 136/161/27
f 136/161/34 146/172/34 147/173/34 137/162/34
f 137/162/33 147/173/33 148/174/33 138/163/33
f 138/163/8 148/174/8 149/175/8 139/164/8
f 139/164/32 149/175/32 150/176/32 140/165/32
f 140/165/31 150/176/31 141/166/31 131/155/31
f 141/166/38 151/177/38 152/178/38 142/167/38
f 142/167/37 152/178/37 153/179/37 143/168/37
f 143/168/3 153/179/3 154/180/3 144/169/3
f 144/169/36 154/180/36 155/181/36 145/170/36
f 145/171/35 155/182/35 156/183/35 146/172/35
f 146/172/42 156/183/42 157/184/42 147/173/42
f 147/173/41 157/184/41 158/185/41 148/174/41
f 148/174/8 158/185/8 159/186/8 149/175/8
f 149/175/40 159/186/40 160/187/40 150/176/40
f 150/176/39 160/187/39 151/177/39 141/166/39
f 151/177/46 161/188/46 162/189/46 152/178/46
f 152/178/45 162/189/45 163/190/45 153/179/45
f 153/179/3 163/190/3 164/191/3 154/180/3
f 154/180/44 164/191/44 165/192/44 155/181/44
f 155/182/43 165/193/43 166/194/43 156/183/43
f 156/183/50 166/194/50 167/195/50 157/184/50
f 157/184/49 167/195/49 168/196/49 158/185/49
f 158/185/8 168/196/8 169/197/8 159/186/8
f 159/186/48 169/197/48 170/198/48 160/187/48
f 160/187/47 170/198/47 161/188/47 151/177/47
f 161/188/54 171/199/54 172/200/54 162/189/54
f 162/189/53 172/200/53 173/201/53 163/190/53
f 163/190/3 173/201/3 174/202/3 164/191/3
f 164/191/52 174/202/52 175/203/52 165/192/52
f 165/193/51 175/204/51 176/205/51 166/194/51
f 166/194/58 176/205/58 177/206/58 167/195/58
f 167/195/57 177/206/57 178/207/57 168/196/57
f 168/196/8 178/207/8 179/208/8 169/197/8
f 169/197/56 179/208/56 180/209/56 170/198/56
f 170/198/55 180/209/55 171/199/55 161/188/55
f 171/199/62 181/210/62 182/211/62 172/200/62
f 172/200/61 182/211/61 183/212/61 173/201/61
f 173/201/3 183/212/3 184/213/3 174/202/3
f 174/202/60 184/213/60 185/214/60 175/203/60
f 175/204/59 185/215/59 186/216/59 176/205/59
f 176/205/66 186/216/66 187/217/66 177/206/66
f 177/206/65 187/217/65 188/218/65 178/207/65
f 178/207/8 188/218/8 189/219/8 179/208/8
f 179/208/64 189/219/64 190/220/64 180/209/64
f 180/209/63 190/220/63 181/210/63 171/199/63
f 181/210/70 191/221/70 192/222/70 182/211/70
f 182/211/69 192/222/69 193/223/69 183/212/69
f 183/212/3 193/223/3 194/224/3 184/213/3
f 184/213/68 194/224/68 195/225/68 185/214/68
f 185/215/67 195/226/67 196/227/67 186/216/67
f 186/216/74 196/227/74 197/228/74 187/217/74
f 187/217/73 197/228/73 198/229/73 188/218/73
f 188/218/8 198/229/8 199/230/8 189/219/8
f 189/219/72 199/230/72 200/231/72 190/220/72
f 190/220/71 200/231/71 191/221/71 181/210/71
f 191/221/78 1/1/78 2/2/78 192/222/78
f 192/222/77 2/2/77 3/3/77 193/223/77
f 193/223/3 3/3/3 4/4/3 194/224/3
f 194/224/76 4/4/76 5/5/76 195/225/76
f 195/226/75 5/6/75 6/7/75 196/227/75
f 196/227/82 6/7/82 7/8/82 197/228/82
f 197/228/81 7/8/81 8/9/81 198/229/81
f 198/229/8 8/9/8 9/10/8 199/230/8
f 199/230/80 9/10/80 10/11/80 200/231/80
f 200/231/79 10/11/79 1/1/79 191/221/79
